<svg xmlns="http://www.w3.org/2000/svg" xmlns:xlink="http://www.w3.org/1999/xlink" xml:space="preserve" style="shape-rendering:geometricPrecision;text-rendering:geometricPrecision;image-rendering:optimizeQuality;" viewBox="0 0 6.82666 8.533325000000001" x="0px" y="0px" fill-rule="evenodd" clip-rule="evenodd"><defs><style type="text/css">
   
    .fil2 {fill:none}
    .fil1 {fill:black}
    .fil0 {fill:black;fill-rule:nonzero}
   
  </style></defs><g><path class="fil0" d="M5.30667 2.58155c0,-0.0441811 -0.0358189,-0.08 -0.08,-0.08 -0.0441811,0 -0.08,0.0358189 -0.08,0.08l0 0.748654c0,0.0441811 0.0358189,0.08 0.08,0.08 0.0441811,0 0.08,-0.0358189 0.08,-0.08l0 -0.748654z"/><path class="fil0" d="M4.54743 2.6961c-0.0441811,0 -0.08,0.0358189 -0.08,0.08 0,0.0441811 0.0358189,0.08 0.08,0.08l1.34591 0c0.0441811,0 0.08,-0.0358189 0.08,-0.08 0,-0.0441811 -0.0358189,-0.08 -0.08,-0.08l-1.34591 0z"/><path class="fil0" d="M2.67685 2.8674l0.406433 0c-0.00460236,-0.0222047 -0.00701969,-0.0450945 -0.00701969,-0.0684331 0,-0.093622 0.0379606,-0.178406 0.0993189,-0.239768 0.0613622,-0.0613583 0.146146,-0.0993189 0.239768,-0.0993189 0.093622,0 0.178406,0.0379606 0.239768,0.0993189 0.0613622,0.0613622 0.0993228,0.146138 0.0993228,0.239768 0,0.0233386 -0.00241732,0.0462283 -0.00701969,0.0684331l0.406429 0c0.0441811,0 0.08,0.0358189 0.08,0.08l0 0.357846c0,0.0441811 -0.0358189,0.08 -0.08,0.08l-1.477 0c-0.0441811,0 -0.08,-0.0358189 -0.08,-0.08l0 -0.357846c0,-0.0441811 0.0358189,-0.08 0.08,-0.08zm0.526138 0.16l-0.446138 0 0 0.197846 1.317 0 0 -0.197846 -0.445618 0 -0.000515748 0 0 -3.93701e-006c-0.0158701,1.1811e-005 -0.0318976,-0.00467323 -0.0458858,-0.0144646 -0.036189,-0.0253386 -0.0449843,-0.0752283 -0.0196457,-0.111417l0.000271654 0.000188976c0.010126,-0.0144803 0.0182244,-0.0308504 0.0238268,-0.0486457 0.00529528,-0.0168346 0.00815748,-0.0349961 0.00815748,-0.0540906 0,-0.0494606 -0.0200472,-0.0942402 -0.0524488,-0.126642 -0.0324016,-0.0323976 -0.0771811,-0.0524449 -0.126642,-0.0524449 -0.0494606,0 -0.0942402,0.0200472 -0.126642,0.0524449 -0.0323976,0.0324016 -0.0524449,0.0771811 -0.0524449,0.126642 0,0.0190945 0.0028622,0.0372559 0.00815748,0.0540906 0.00497244,0.0157992 0.0119173,0.0304843 0.0205039,0.0437126 0.0112913,0.0137913 0.018063,0.0314173 0.018063,0.0506299 0,0.0441811 -0.0358189,0.08 -0.08,0.08z"/><path class="fil0" d="M2.63097 3.22821l1.57074 0c0.0441811,0 0.08,0.0358189 0.08,0.08 0,0.0138346 -0.00351575,0.0268543 -0.00969685,0.0382047l-0.142693 0.309673 0.000145669 6.69291e-005c-0.0137047,0.029748 -0.0433661,0.0470748 -0.0741457,0.0465197l-1.28102 0c-0.0341063,0 -0.0632165,-0.0213425 -0.0747283,-0.0514016l-0.142677 -0.309626 0.0725 -0.033437 -0.0726575 0.0334803c-0.0184882,-0.040126 -0.000948819,-0.0876496 0.0391772,-0.106138 0.0113701,-0.00524016 0.0233346,-0.00758268 0.035063,-0.00734252zm1.44596 0.16l-1.32278 0 0.0711772 0.154465 1.18043 0 0.0711732 -0.154465z"/><path class="fil0" d="M1.69257 2.58155c0,-0.0441811 -0.0358189,-0.08 -0.08,-0.08 -0.0441811,0 -0.08,0.0358189 -0.08,0.08l0 0.748654c0,0.0441811 0.0358189,0.08 0.08,0.08 0.0441811,0 0.08,-0.0358189 0.08,-0.08l0 -0.748654z"/><path class="fil0" d="M0.933331 2.6961c-0.0441811,0 -0.08,0.0358189 -0.08,0.08 0,0.0441811 0.0358189,0.08 0.08,0.08l1.34591 0c0.0441811,0 0.08,-0.0358189 0.08,-0.08 0,-0.0441811 -0.0358189,-0.08 -0.08,-0.08l-1.34591 0z"/><path class="fil0" d="M3.14555 3.5456l0.540008 0c0.0550669,0 0.105071,0.0224685 0.141272,0.0586693 0.0362008,0.0362008 0.0586693,0.0862047 0.0586693,0.141272l0 0.37963c0,0.0550709 -0.0224724,0.105079 -0.0586693,0.141268 -0.0362008,0.0362008 -0.0862047,0.0586693 -0.141272,0.0586693l-0.540008 0c-0.0550669,0 -0.105071,-0.0224685 -0.141272,-0.0586693 -0.0361969,-0.036189 -0.0586693,-0.0861969 -0.0586693,-0.141268l0 -0.37963c0,-0.0550669 0.0224685,-0.105071 0.0586693,-0.141272 0.0362008,-0.0362008 0.0862047,-0.0586693 0.141272,-0.0586693zm0.540008 0.16l-0.540008 0c-0.0108976,0 -0.0208701,0.00451969 -0.0281457,0.0117953 -0.00727559,0.00727559 -0.0117953,0.017248 -0.0117953,0.0281457l0 0.37963c0,0.0108976 0.00451969,0.0208661 0.0117953,0.0281417 0.00727559,0.00727559 0.017248,0.0117953 0.0281457,0.0117953l0.540008 0c0.0108976,0 0.0208701,-0.00451969 0.0281457,-0.0117953 0.00727559,-0.00727559 0.0117953,-0.0172441 0.0117953,-0.0281417l0 -0.37963c0,-0.0108976 -0.00451969,-0.0208701 -0.0117953,-0.0281457 -0.00727559,-0.00727559 -0.017248,-0.0117953 -0.0281457,-0.0117953z"/><circle class="fil1" cx="3.41555" cy="3.93536" r="0.105359"/><path class="fil0" d="M1.64178 3.22813c-0.0441811,0 -0.08,0.0358189 -0.08,0.08 0,0.0441811 0.0358189,0.08 0.08,0.08l3.58489 0c0.0441811,0 0.08,-0.0358189 0.08,-0.08 0,-0.0441811 -0.0358189,-0.08 -0.08,-0.08l-3.58489 0z"/><path class="fil0" d="M5.2078 4.21595c-0.110039,0 -0.20811,-0.0571496 -0.277685,-0.149539 -0.0647874,-0.0860276 -0.104862,-0.203559 -0.104862,-0.332197 0,-0.128634 0.0400748,-0.246173 0.104862,-0.332201 0.0695748,-0.0923898 0.167646,-0.149539 0.277685,-0.149539 0.110039,0 0.20811,0.0571496 0.277685,0.149539 0.0647874,0.0860276 0.104862,0.203567 0.104862,0.332201 0,0.12863 -0.0400748,0.246173 -0.104862,0.332197 -0.0695748,0.0923898 -0.167646,0.149539 -0.277685,0.149539zm-0.150181 -0.245791c0.0399134,0.0530039 0.0931339,0.0857913 0.150181,0.0857913 0.0570472,0 0.110268,-0.0327874 0.150181,-0.0857913 0.0447126,-0.0593661 0.0723661,-0.142713 0.0723661,-0.235945 0,-0.0932402 -0.0276575,-0.176583 -0.0723661,-0.235949 -0.0399134,-0.0530039 -0.0931339,-0.0857913 -0.150181,-0.0857913 -0.0570472,0 -0.110268,0.0327874 -0.150181,0.0857913 -0.0447087,0.0593661 -0.0723661,0.142709 -0.0723661,0.235949 0,0.0932362 0.0276575,0.176579 0.0723661,0.235945z"/><path class="fil0" d="M1.5942 4.21595c-0.110039,0 -0.20811,-0.0571496 -0.277685,-0.149539 -0.0647874,-0.0860276 -0.104862,-0.203559 -0.104862,-0.332197 0,-0.128634 0.0400748,-0.246173 0.104862,-0.332201 0.0695748,-0.0923898 0.167646,-0.149539 0.277685,-0.149539 0.110039,0 0.20811,0.0571496 0.277685,0.149539 0.0647874,0.0860276 0.104862,0.203567 0.104862,0.332201 0,0.12863 -0.0400748,0.246173 -0.104862,0.332197 -0.0695748,0.0923898 -0.167646,0.149539 -0.277685,0.149539zm-0.150181 -0.245791c0.0399134,0.0530039 0.0931339,0.0857913 0.150181,0.0857913 0.0570472,0 0.110268,-0.0327874 0.150181,-0.0857913 0.0447126,-0.0593661 0.0723661,-0.142713 0.0723661,-0.235945 0,-0.0932402 -0.0276575,-0.176583 -0.0723661,-0.235949 -0.0399134,-0.0530039 -0.0931339,-0.0857913 -0.150181,-0.0857913 -0.0570472,0 -0.110268,0.0327874 -0.150181,0.0857913 -0.0447087,0.0593661 -0.0723661,0.142709 -0.0723661,0.235949 0,0.0932362 0.0276575,0.176579 0.0723661,0.235945z"/><circle class="fil1" cx="1.59421" cy="3.73421" r="0.070311"/><circle class="fil1" cx="5.2078" cy="3.73421" r="0.070311"/></g><rect class="fil2" width="6.82666" height="6.82666"/><text x="0" y="21.82666" fill="#000000" font-size="5px" font-weight="bold" font-family="'Helvetica Neue', Helvetica, Arial-Unicode, Arial, Sans-serif">Created by IYIKON</text><text x="0" y="26.82666" fill="#000000" font-size="5px" font-weight="bold" font-family="'Helvetica Neue', Helvetica, Arial-Unicode, Arial, Sans-serif">from the Noun Project</text></svg>