<svg xmlns="http://www.w3.org/2000/svg" xmlns:xlink="http://www.w3.org/1999/xlink" version="1.1" x="0px" y="0px" viewBox="0 0 100 125" enable-background="new 0 0 100 100" xml:space="preserve"><g><g><path d="M94.3,38.2L55.7,24.9c-1-0.6-2.1-1-3.3-1.2l6.5-2.6c0.5-0.2,0.8-0.8,0.6-1.3c-0.2-0.5-0.8-0.8-1.3-0.6L51,22.1v-9.4    c0-0.6-0.4-1-1-1s-1,0.4-1,1v9.4l-7.2-2.8c-0.5-0.2-1.1,0.1-1.3,0.6c-0.2,0.5,0.1,1.1,0.6,1.3l6.5,2.6c-1.2,0.2-2.3,0.6-3.3,1.2    L5.7,38.2c-0.5,0.2-0.8,0.7-0.6,1.3c0.1,0.4,0.5,0.7,0.9,0.7c0.1,0,0.2,0,0.3-0.1l9.9-3.4c-0.1,0.4-0.2,0.8-0.2,1.2    c0,1.9,1.5,3.4,3.4,3.4s3.4-1.5,3.4-3.4c0-1.3-0.7-2.3-1.7-2.9l5.6-1.9c-0.6,0.6-1,1.5-1,2.4c0,1.9,1.5,3.4,3.4,3.4    s3.4-1.5,3.4-3.4c0-1.8-1.3-3.2-3-3.4l10.7-3.7c-1.5,2-2.3,4.4-2.3,7.1c0,6.6,5.4,12,12,12s12-5.4,12-12c0-2.6-0.9-5.1-2.3-7.1    l11.7,4c-0.2,0-0.4-0.1-0.6-0.1c-1.9,0-3.4,1.5-3.4,3.4s1.5,3.4,3.4,3.4s3.4-1.5,3.4-3.4c0-1.3-0.8-2.5-1.9-3.1l6.8,2.4    c-1.2,0.5-2.1,1.7-2.1,3.1c0,1.9,1.5,3.4,3.4,3.4s3.4-1.5,3.4-3.4c0-0.6-0.2-1.2-0.4-1.6l10.1,3.5c0.1,0,0.2,0.1,0.3,0.1    c0.4,0,0.8-0.3,0.9-0.7C95.1,38.9,94.8,38.4,94.3,38.2z M19.4,39.4c-0.8,0-1.4-0.6-1.4-1.4s0.6-1.4,1.4-1.4s1.4,0.6,1.4,1.4    S20.2,39.4,19.4,39.4z M30.7,35.5c0,0.8-0.6,1.4-1.4,1.4s-1.4-0.6-1.4-1.4c0-0.8,0.6-1.4,1.4-1.4S30.7,34.7,30.7,35.5z M70.8,37.2    c-0.8,0-1.4-0.6-1.4-1.4s0.6-1.4,1.4-1.4s1.4,0.6,1.4,1.4S71.6,37.2,70.8,37.2z M80.6,39.7c-0.8,0-1.4-0.6-1.4-1.4    s0.6-1.4,1.4-1.4c0.8,0,1.4,0.6,1.4,1.4S81.4,39.7,80.6,39.7z M60,35.5c0,5.5-4.5,10-10,10s-10-4.5-10-10c0-3.7,2.1-7,5.1-8.7    l0.3-0.1c0.1,0,0.3-0.1,0.4-0.2c1.3-0.6,2.7-0.9,4.2-0.9s2.9,0.3,4.2,0.9c0.1,0.1,0.2,0.2,0.4,0.2l0.3,0.1    C57.9,28.5,60,31.7,60,35.5z"/><path d="M50,34.5c-1.9,0-3.4,1.5-3.4,3.4s1.5,3.4,3.4,3.4s3.4-1.5,3.4-3.4S51.9,34.5,50,34.5z M50,39.4c-0.8,0-1.4-0.6-1.4-1.4    s0.6-1.4,1.4-1.4s1.4,0.6,1.4,1.4S50.8,39.4,50,39.4z"/><path d="M53.7,29.6h-8.6c-0.6,0-1,0.4-1,1s0.4,1,1,1h8.6c0.6,0,1-0.4,1-1S54.2,29.6,53.7,29.6z"/><circle cx="42.3" cy="55.9" r="2"/><circle cx="50" cy="53.3" r="2"/><circle cx="53" cy="63.3" r="2"/><circle cx="48.3" cy="74.9" r="2"/><circle cx="45" cy="66.3" r="2"/><circle cx="52" cy="86.3" r="2"/></g></g><text x="0" y="115" fill="#000000" font-size="5px" font-weight="bold" font-family="'Helvetica Neue', Helvetica, Arial-Unicode, Arial, Sans-serif">Created by Mirko Velimirovic</text><text x="0" y="120" fill="#000000" font-size="5px" font-weight="bold" font-family="'Helvetica Neue', Helvetica, Arial-Unicode, Arial, Sans-serif">from the Noun Project</text></svg>