<svg xmlns="http://www.w3.org/2000/svg" xmlns:xlink="http://www.w3.org/1999/xlink" version="1.1" x="0px" y="0px" viewBox="0 0 91 113.75" style="enable-background:new 0 0 91 91;" xml:space="preserve"><g><path d="M39.3,65.5c0.2-1,0.7-1.7,1.1-2.2l0.2-0.3c0.5-0.8,0.9-1.7,1-2.6c-0.7,0.1-1.9,0.5-2.6,0.8c-2.3,0.9-5.2,2-7.3,0.1   c-0.5-0.4-0.7-1.1-0.5-1.8c0.4-1.1,1.2-1.8,1.8-2.4c0.3-0.3,0.8-0.7,0.8-0.9c0-0.1-0.1-0.4-0.2-0.4c-4.1-0.3-5.6-1.9-6.2-3.2   c-0.5-1.2-0.2-2.7,0.6-3.6c0.7-0.8,1.8-1.1,2.7-0.8c1.9,0.6,2.5,0.5,2.6,0.3c0.2-0.2,0-1.1-0.6-2.1l-0.1-0.1   c-0.9-1.4-2.1-3.2-1.5-5.4c0.4-1.3,1.3-2.1,2.1-2.7c1.4-1,2.9-1.9,4.5-2.4c1-0.4,2.6-0.9,2.6-1.6c0.1-1-0.4-1.8-1.3-3.1   c-0.7-0.9-1.4-1.9-1.8-3.3c-10.1,0.6-18.4,8-20.5,17.6c2.3-0.9,4.2-1.3,5.7-1.5c0.7-0.1,1.4-0.1,2.2,0.1c1.2,0.4,2,1.4,2,2.5   c0.1,1.2-0.7,2.1-1.1,2.6l-0.1,0.1c-0.8,0.9-1.3,2.5-0.6,3.3c0.1,0.1,0.1,0.1,0.2,0.2c0.3,0.4,0.9,1.1,0.9,2.1   c0,0.9-0.4,1.5-0.7,1.9c-0.6,0.9-2.5,6-2.6,8.7c4,4.1,9.7,6.7,15.9,6.7c2.4,0,4.7-0.4,6.9-1.1c-2.2-0.5-4-1.3-4.6-1.8   C39.8,68.4,39.1,66.9,39.3,65.5z"/><path d="M48,41.7c0.4,0.1,0.9,0.1,1.3,0.1c0.4,0,1,0,1.6,0.3c0.6,0.3,1.4,1.1,1.5,2.7c0,0.5,0,0.9,0,1.4c0.3-0.1,0.5-0.1,0.9-0.2   c1.2-0.1,2,0.6,2.6,1.1c0.1,0.1,0.2,0.2,0.4,0.3c0,0,0.1-0.1,0.1-0.2c0.4-0.8,1.8-2.8,3.6-3.9c-1.2-3.8-3.4-7.1-6.2-9.8L48,41.7z"/><path d="M60.8,47c-0.7,0.6-1.2,1.4-1.4,1.7c-0.6,1.4-1.8,2.2-3.1,2.2c0,0,0,0,0,0c-1.1,0-1.9-0.6-2.5-1.1c-0.1-0.1-0.3-0.2-0.4-0.3   c-0.1,0-0.2,0.1-0.3,0.2c-0.1,0.1-0.3,0.2-0.4,0.3c-1.3,0.8-2.8,0.6-3.7-0.4c-0.4-0.4-0.5-1.1-0.3-1.6c0.3-0.9,0.4-1.8,0.4-2.8   c-0.8,0-1.6-0.1-2.3-0.3c-0.5-0.1-1.1-0.3-1.6-0.7c-0.9-0.8-1.3-2.4,0.1-4.4l5.9-8.3c-2.9-2-6.3-3.2-10-3.6   c0.2,0.4,0.5,0.8,0.8,1.2c1,1.4,2.3,3.1,2,5.5c-0.3,2.7-3,3.7-4.8,4.3c-1.3,0.5-2.5,1.1-3.6,2c-0.4,0.3-0.8,0.7-0.9,1   c-0.2,0.6,0.5,1.7,1.1,2.5l0.1,0.1c1.6,2.4,1.7,4.6,0.4,6.1c-1.4,1.6-3.5,1.5-5,1.1c0.4,0.3,1.3,0.6,2.9,0.7c1.9,0.1,3.2,2,3.3,3.6   c0,1.1-0.4,1.9-0.9,2.5c0.5-0.2,1-0.4,1.5-0.5c2.3-0.9,5.4-2,7,0.6c0.2,0.3,0.3,0.6,0.3,0.9c0,1.9-0.7,3.8-1.7,5.4l-0.2,0.3   c-0.2,0.3-0.5,0.6-0.5,0.8c0,0.1,0.1,0.4,0.4,0.7c0.5,0.4,3.8,1.6,7,1.6c0.3,0,0.6,0.1,0.8,0.2C57,64.6,61,57.8,61,50   C61,49,60.9,48,60.8,47z"/><path d="M22.3,54.6c-1.6-2.3-0.9-5.3,0.6-7.3c-1.1,0.1-3.6,0.5-6.4,2c0,0.2,0,0.4,0,0.7c0,4.4,1.3,8.6,3.6,12   c0.7-2.8,1.8-5.9,2.6-7c0,0,0-0.1-0.1-0.1C22.4,54.8,22.4,54.7,22.3,54.6z"/><path d="M13.6,18.6c0,0-0.1,0.1-0.1,0.1c-0.7,0.6-0.8,1.7-0.2,2.4c0.3,0.4,0.8,0.6,1.3,0.6c0.4,0,0.8-0.1,1.1-0.4   c0.7-0.6,0.9-1.6,0.3-2.4C15.4,18.2,14.3,18,13.6,18.6z"/><path d="M49.3,11.2c-0.9-0.2-1.8,0.3-2,1.2c-0.2,0.9,0.3,1.8,1.2,2.1c0.2,0,0.3,0.1,0.5,0.1c0.7,0,1.4-0.5,1.6-1.2   c0.3-0.9-0.3-1.8-1.2-2.1L49.3,11.2z"/><path d="M18.8,15l-0.1,0.1c-0.8,0.5-1,1.5-0.6,2.3c0.3,0.5,0.9,0.8,1.5,0.8c0.3,0,0.6-0.1,0.9-0.2c0.8-0.5,1.1-1.5,0.6-2.3   C20.6,14.9,19.6,14.6,18.8,15z"/><path d="M29.2,12.6c0.2,0.8,0.9,1.4,1.7,1.4c0.1,0,0.2,0,0.3,0l0.2,0c0.9-0.2,1.5-1.1,1.3-2c-0.2-0.9-1.1-1.5-2-1.3l0,0   C29.6,10.8,29,11.7,29.2,12.6z"/><path d="M24.5,12.3l-0.1,0.1c-0.9,0.3-1.3,1.3-0.9,2.2c0.3,0.7,0.9,1.1,1.6,1.1c0.2,0,0.4,0,0.6-0.1c0.9-0.3,1.3-1.3,1-2.2   S25.4,12,24.5,12.3z"/><path d="M43.1,10c-0.9-0.1-1.8,0.6-1.9,1.5c-0.1,0.9,0.6,1.8,1.5,1.9l0.2,0c0,0,0.1,0,0.1,0c0.9,0,1.6-0.7,1.7-1.5   C44.8,10.9,44.1,10.1,43.1,10L43.1,10z"/><path d="M36.7,9.8c-0.9,0.1-1.6,0.8-1.6,1.8c0.1,0.9,0.8,1.6,1.7,1.6c0,0,0.1,0,0.1,0c0.9,0,1.7-0.8,1.6-1.7c0-0.9-0.8-1.7-1.7-1.6   L36.7,9.8z"/><path d="M56.2,15.6c0.4-0.9,0-1.8-0.9-2.2l0,0c-0.8-0.4-1.8,0-2.2,0.8c-0.4,0.8,0,1.8,0.8,2.2l0.2,0.1c0.2,0.1,0.4,0.1,0.7,0.1   C55.3,16.6,55.9,16.2,56.2,15.6z"/><path d="M76.2,40.7c-0.9,0.2-1.5,1.1-1.3,2l0,0.1c0.2,0.8,0.9,1.3,1.6,1.3c0.1,0,0.2,0,0.3,0c0.9-0.2,1.5-1.1,1.3-2   c0,0,0-0.1,0-0.1C78,41.1,77.1,40.5,76.2,40.7z"/><path d="M76.4,35.9l-0.1-0.1c-0.3-0.9-1.3-1.3-2.2-0.9c-0.9,0.3-1.3,1.3-1,2.2c0.2,0.7,0.9,1.1,1.6,1.1c0.2,0,0.4,0,0.6-0.1   C76.3,37.8,76.7,36.8,76.4,35.9z"/><path d="M65.4,75.4l-0.1,0.1c-0.6,0.7-0.6,1.8,0.1,2.4c0.3,0.3,0.7,0.4,1.1,0.4c0.5,0,0.9-0.2,1.2-0.5l0.1-0.1   c0.6-0.7,0.6-1.7,0-2.4C67.1,74.7,66.1,74.7,65.4,75.4z"/><path d="M76.2,59c-0.9-0.3-1.8,0.3-2.1,1.2l0,0.1c-0.3,0.9,0.3,1.8,1.2,2.1c0.2,0,0.3,0.1,0.5,0.1c0.7,0,1.4-0.5,1.6-1.2l0-0.1   C77.6,60.2,77.1,59.3,76.2,59z"/><path d="M77.2,53c-0.9-0.1-1.8,0.6-1.9,1.5c-0.1,0.9,0.5,1.8,1.4,1.9c0.1,0,0.2,0,0.2,0c0.8,0,1.6-0.6,1.7-1.5l0-0.1   C78.8,53.9,78.1,53.1,77.2,53z"/><path d="M71.5,70.4c-0.8-0.5-1.8-0.3-2.4,0.4l-0.1,0.1c-0.5,0.8-0.3,1.8,0.5,2.3c0.3,0.2,0.6,0.3,0.9,0.3c0.5,0,1.1-0.3,1.4-0.8   l0-0.1C72.4,72,72.2,70.9,71.5,70.4z"/><path d="M74.3,64.9c-0.8-0.4-1.8-0.1-2.3,0.8L72,65.8c-0.4,0.8,0,1.8,0.8,2.2c0.2,0.1,0.5,0.2,0.7,0.2c0.6,0,1.3-0.4,1.5-1l0-0.1   C75.5,66.3,75.2,65.3,74.3,64.9z"/><path d="M77.2,46.8c-0.9,0-1.7,0.8-1.6,1.7l0,0.2c0,0.9,0.8,1.6,1.7,1.6c0,0,0.1,0,0.1,0c0.9-0.1,1.6-0.8,1.6-1.8l0-0.1   C78.9,47.5,78.1,46.7,77.2,46.8z"/><path d="M61,79.3c-0.8,0.5-1,1.6-0.5,2.3c0.3,0.5,0.9,0.8,1.4,0.8c0.3,0,0.6-0.1,0.9-0.3c0,0,0.1-0.1,0.1-0.1l0,0   c0.7-0.5,0.9-1.6,0.4-2.3C62.9,79,61.8,78.8,61,79.3z"/><path d="M75.2,29.6c1.5-2.3,2-5.1,1.5-7.9c-1.2-5.6-6.8-9.3-12.4-8.1c-2.7,0.6-5.1,2.2-6.6,4.5c-1.5,2.3-2,5.1-1.5,7.9   c0.6,2.7,2.2,5.1,4.5,6.6c1.7,1.1,3.7,1.7,5.7,1.7c0.7,0,1.5-0.1,2.2-0.2C71.3,33.5,73.6,31.9,75.2,29.6z M64.4,27.4H59   c-0.9,0-1.7-0.8-1.7-1.7S58.1,24,59,24h5.3c0.9,0,1.7,0.8,1.7,1.7S65.3,27.4,64.4,27.4z M68,21.6c-0.9,0-1.7-0.8-1.7-1.7   s0.8-1.7,1.7-1.7h3.6c0.9,0,1.7,0.8,1.7,1.7s-0.8,1.7-1.7,1.7H68z M71.9,28.3c-0.9,0-1.7-0.8-1.7-1.7s0.8-1.7,1.7-1.7h1.6   c0.9,0,1.7,0.8,1.7,1.7s-0.8,1.7-1.7,1.7H71.9z"/></g><text x="0" y="106" fill="#000000" font-size="5px" font-weight="bold" font-family="'Helvetica Neue', Helvetica, Arial-Unicode, Arial, Sans-serif">Created by BomSymbol</text><text x="0" y="111" fill="#000000" font-size="5px" font-weight="bold" font-family="'Helvetica Neue', Helvetica, Arial-Unicode, Arial, Sans-serif">from the Noun Project</text></svg>